<?xml version="1.0" encoding="UTF-8"?>
<!DOCTYPE svg PUBLIC "-//W3C//DTD SVG 1.1//EN" "http://www.w3.org/Graphics/SVG/1.1/DTD/svg11.dtd">
<svg xmlns="http://www.w3.org/2000/svg" version="1.1" width="958px" height="195px" style="shape-rendering:geometricPrecision; text-rendering:geometricPrecision; image-rendering:optimizeQuality; fill-rule:evenodd; clip-rule:evenodd" xmlns:xlink="http://www.w3.org/1999/xlink">
<g><path style="opacity:1" fill="#fdfdfd" d="M -0.5,-0.5 C 318.833,-0.5 638.167,-0.5 957.5,-0.5C 957.5,64.5 957.5,129.5 957.5,194.5C 638.167,194.5 318.833,194.5 -0.5,194.5C -0.5,129.5 -0.5,64.5 -0.5,-0.5 Z"/></g>
<g><path style="opacity:1" fill="#020202" d="M 901.5,19.5 C 912.167,19.5 922.833,19.5 933.5,19.5C 933.333,54.5016 933.5,89.5016 934,124.5C 935.248,129.081 938.248,131.414 943,131.5C 944.745,139.187 945.578,146.854 945.5,154.5C 933.711,159.11 922.378,158.277 911.5,152C 905.893,147.531 902.727,141.698 902,134.5C 900.877,114.365 900.377,94.198 900.5,74C 900.506,55.7613 900.84,37.5946 901.5,19.5 Z"/></g>
<g><path style="opacity:1" fill="#020202" d="M 456.5,28.5 C 468.081,28.1789 479.581,28.5122 491,29.5C 504.803,56.7739 517.803,84.4405 530,112.5C 528.675,96.5501 527.675,80.5501 527,64.5C 526.333,52.8333 526.333,41.1667 527,29.5C 537.418,28.5134 547.918,28.1801 558.5,28.5C 558.5,70.5 558.5,112.5 558.5,154.5C 546.919,154.821 535.419,154.488 524,153.5C 509.909,126.652 496.909,99.3185 485,71.5C 485.057,80.5184 485.724,89.5184 487,98.5C 487.5,117.164 487.667,135.83 487.5,154.5C 477.167,154.5 466.833,154.5 456.5,154.5C 456.5,112.5 456.5,70.5 456.5,28.5 Z"/></g>
<g><path style="opacity:1" fill="#f81a19" d="M 312.5,30.5 C 326.586,30.4725 339.919,33.6391 352.5,40C 355.86,42.3661 358.86,45.0327 361.5,48C 357.736,54.1011 353.569,59.9344 349,65.5C 347.649,67.019 346.149,68.3523 344.5,69.5C 333.544,61.074 321.544,58.9074 308.5,63C 304.5,67 304.5,71 308.5,75C 322.868,81.3413 337.201,87.6747 351.5,94C 365.774,106.352 369.607,121.518 363,139.5C 354.904,154.31 342.404,162.81 325.5,165C 302.971,167.877 283.304,161.877 266.5,147C 271.319,140.844 276.153,134.678 281,128.5C 282.389,126.773 284.056,125.439 286,124.5C 293.352,129.259 301.185,133.092 309.5,136C 315.724,137.061 321.724,136.394 327.5,134C 332.237,127.819 331.237,122.819 324.5,119C 311.007,113.952 298.007,107.952 285.5,101C 272.299,90.4252 267.799,76.9252 272,60.5C 276.411,48.4221 284.577,39.9221 296.5,35C 301.928,33.3505 307.262,31.8505 312.5,30.5 Z"/></g>
<g><path style="opacity:1" fill="#020202" d="M 25.5,32.5 C 45.8361,32.3334 66.1694,32.5 86.5,33C 120.035,36.9012 130.201,54.4012 117,85.5C 113.942,89.0617 110.442,92.0617 106.5,94.5C 124.011,101.182 131.511,113.848 129,132.5C 126.198,145.968 118.365,155.135 105.5,160C 99.0571,162.555 92.3905,164.222 85.5,165C 65.5028,165.5 45.5028,165.667 25.5,165.5C 25.5,121.167 25.5,76.8333 25.5,32.5 Z"/></g>
<g><path style="opacity:1" fill="#020202" d="M 212.5,163.5 C 198.245,164.482 183.912,164.816 169.5,164.5C 156.351,120.908 143.351,77.2416 130.5,33.5C 142.833,32.1667 155.167,32.1667 167.5,33.5C 174.891,66.3357 182.891,99.0024 191.5,131.5C 199.79,98.6333 207.457,65.6333 214.5,32.5C 226.5,32.5 238.5,32.5 250.5,32.5C 238.001,76.1552 225.334,119.822 212.5,163.5 Z"/></g>
<g><path style="opacity:1" fill="#030303" d="M 618.5,55.5 C 644.638,53.484 660.804,65.1507 667,90.5C 667.673,99.1894 667.507,107.856 666.5,116.5C 648.167,116.5 629.833,116.5 611.5,116.5C 612.83,123.998 617.163,128.831 624.5,131C 630.5,131.667 636.5,131.667 642.5,131C 646.128,129.343 649.795,128.01 653.5,127C 657.094,132.855 660.427,138.855 663.5,145C 661.968,147.117 659.968,148.784 657.5,150C 637.896,160.31 618.562,159.977 599.5,149C 585.264,138.337 578.264,124.004 578.5,106C 579.815,79.4917 593.149,62.6584 618.5,55.5 Z"/></g>
<g><path style="opacity:1" fill="#050505" d="M 736.5,55.5 C 761.606,55.0981 775.773,67.4314 779,92.5C 782.912,113.702 777.745,132.202 763.5,148C 754.263,155.976 743.596,158.643 731.5,156C 726.952,154.142 722.785,151.642 719,148.5C 719.424,161.789 719.591,175.122 719.5,188.5C 708.167,188.5 696.833,188.5 685.5,188.5C 685.333,145.165 685.5,101.832 686,58.5C 694.755,57.3503 703.588,57.1837 712.5,58C 713.649,61.0206 714.982,63.8539 716.5,66.5C 722.372,61.2337 729.039,57.5671 736.5,55.5 Z"/></g>
<g><path style="opacity:1" fill="#020202" d="M 828.5,55.5 C 841.406,54.0368 853.406,56.5368 864.5,63C 872.462,69.6383 876.962,78.1383 878,88.5C 878.5,110.497 878.667,132.497 878.5,154.5C 869.494,154.666 860.494,154.5 851.5,154C 851.066,151.099 849.899,148.599 848,146.5C 842.71,150.563 836.877,153.73 830.5,156C 807.533,159.541 794.867,149.708 792.5,126.5C 793.691,111.806 801.358,102.306 815.5,98C 824.859,94.6141 834.525,92.6141 844.5,92C 845.137,89.0713 844.137,86.5713 841.5,84.5C 834.288,80.7225 826.955,80.5558 819.5,84C 815.758,85.9536 811.925,87.7869 808,89.5C 803.588,83.6862 799.921,77.3529 797,70.5C 796.316,69.2161 796.483,68.0495 797.5,67C 807.48,61.8445 817.813,58.0111 828.5,55.5 Z"/></g>
<g><path style="opacity:1" fill="#f9f9f9" d="M 60.5,59.5 C 67.9209,59.1095 75.2542,59.6095 82.5,61C 88.2337,64.1801 90.067,69.0134 88,75.5C 86.1814,80.3357 82.6814,83.169 77.5,84C 71.8431,84.4994 66.1764,84.6661 60.5,84.5C 60.5,76.1667 60.5,67.8333 60.5,59.5 Z"/></g>
<g><path style="opacity:1" fill="#f9f9f9" d="M 622.5,80.5 C 633.03,79.3698 638.697,84.0365 639.5,94.5C 630.167,94.5 620.833,94.5 611.5,94.5C 612.227,87.4479 615.894,82.7812 622.5,80.5 Z"/></g>
<g><path style="opacity:1" fill="#fcfcfc" d="M 728.5,82.5 C 737.08,81.5839 742.58,85.2505 745,93.5C 745.667,101.167 745.667,108.833 745,116.5C 741.117,129.924 732.95,133.257 720.5,126.5C 719.334,113.846 719.167,101.18 720,88.5C 722.637,86.109 725.47,84.109 728.5,82.5 Z"/></g>
<g><path style="opacity:1" fill="#323232" d="M 433.5,94.5 C 417.5,94.5 401.5,94.5 385.5,94.5C 385.5,101.833 385.5,109.167 385.5,116.5C 384.508,109.018 384.175,101.352 384.5,93.5C 401.009,93.1702 417.342,93.5036 433.5,94.5 Z"/></g>
<g><path style="opacity:1" fill="#040404" d="M 433.5,94.5 C 433.5,102.167 433.5,109.833 433.5,117.5C 417.325,117.83 401.325,117.496 385.5,116.5C 385.5,109.167 385.5,101.833 385.5,94.5C 401.5,94.5 417.5,94.5 433.5,94.5 Z"/></g>
<g><path style="opacity:1" fill="#fafafa" d="M 60.5,110.5 C 69.5586,110.154 78.5586,110.654 87.5,112C 92.8578,113.711 95.1912,117.378 94.5,123C 94.3898,132.114 89.7231,137.114 80.5,138C 73.8417,138.5 67.175,138.666 60.5,138.5C 60.5,129.167 60.5,119.833 60.5,110.5 Z"/></g>
<g><path style="opacity:1" fill="#f4f4f4" d="M 842.5,111.5 C 843.496,111.414 844.329,111.748 845,112.5C 847.56,127.607 841.393,133.441 826.5,130C 822.926,121.812 825.593,116.479 834.5,114C 837.31,113.218 839.977,112.384 842.5,111.5 Z"/></g>
<g><path style="opacity:1" fill="#686868" d="M 212.5,163.5 C 205.699,164.831 198.533,165.497 191,165.5C 183.659,165.5 176.492,165.166 169.5,164.5C 183.912,164.816 198.245,164.482 212.5,163.5 Z"/></g>
</svg>
