<?xml version="1.0" standalone="no"?>
<!DOCTYPE svg PUBLIC "-//W3C//DTD SVG 20010904//EN"
 "http://www.w3.org/TR/2001/REC-SVG-20010904/DTD/svg10.dtd">
<svg version="1.0" xmlns="http://www.w3.org/2000/svg"
 width="523.000000pt" height="228.000000pt" viewBox="0 0 523.000000 228.000000"
 preserveAspectRatio="xMidYMid meet">

<g transform="translate(0.000000,228.000000) scale(0.100000,-0.100000)"
fill="#000000" stroke="none">
<path d="M4260 2107 c-63 -19 -138 -45 -165 -59 -127 -65 -229 -169 -285 -293
-94 -205 -55 -433 102 -601 56 -59 76 -72 242 -154 100 -49 237 -112 306 -140
136 -56 186 -93 196 -147 8 -41 -26 -115 -60 -131 -46 -21 -147 -35 -206 -29
-67 7 -204 63 -323 132 l-80 47 -26 -19 c-14 -11 -79 -87 -144 -169 l-118
-149 28 -23 c55 -47 192 -132 259 -163 232 -104 569 -119 783 -35 135 54 242
137 321 252 81 118 117 280 91 419 -16 88 -80 211 -148 283 -57 60 -63 64
-298 166 -448 194 -450 195 -450 271 0 84 71 119 237 118 104 -1 171 -20 274
-79 l75 -43 34 31 c35 30 137 163 190 248 l28 44 -54 48 c-67 59 -137 97 -254
136 -120 41 -229 62 -345 68 -86 4 -106 1 -210 -29z"/>
<path d="M80 1116 l0 -996 438 0 c348 0 455 3 525 15 319 56 498 184 572 411
18 56 25 98 25 158 0 204 -89 352 -264 442 l-74 38 27 20 c14 10 50 42 79 70
47 45 56 61 82 144 43 134 55 227 41 315 -29 174 -145 279 -378 344 l-98 27
-487 4 -488 3 0 -995z m748 583 c54 -6 110 -18 126 -27 119 -69 92 -259 -45
-316 -22 -9 -88 -18 -168 -22 l-131 -7 0 192 0 191 60 0 c34 0 104 -5 158 -11z
m119 -770 c137 -19 181 -68 169 -188 -11 -108 -63 -175 -155 -201 -20 -6 -107
-13 -193 -17 l-158 -6 0 211 0 212 129 0 c71 0 165 -5 208 -11z"/>
<path d="M1713 2103 c-29 -2 -53 -7 -53 -10 0 -5 253 -859 465 -1569 l117
-391 111 -6 c167 -10 289 -8 415 7 62 7 115 15 117 18 6 5 194 650 410 1398
74 256 141 486 149 513 l14 47 -271 -2 -271 -3 -34 -155 c-59 -273 -168 -747
-238 -1034 -62 -253 -70 -276 -80 -250 -16 39 -209 815 -288 1154 l-63 275
-59 6 c-62 7 -351 8 -441 2z"/>
</g>
</svg>
